<?xml version="1.0" encoding="UTF-8" standalone="no"?>
<!DOCTYPE svg PUBLIC "-//W3C//DTD SVG 1.1//EN" "http://www.w3.org/Graphics/SVG/1.1/DTD/svg11.dtd">
<svg width="100%" height="100%" viewBox="0 0 210 130" version="1.1" xmlns="http://www.w3.org/2000/svg" xmlns:xlink="http://www.w3.org/1999/xlink" xml:space="preserve" style="fill-rule:evenodd;clip-rule:evenodd;stroke-linejoin:round;stroke-miterlimit:1.41421;"><g><g><path d="M149.998,0l-14.998,25.98l-15.002,-25.98l30,0Z" style="fill:#f5634a;fill-rule:nonzero;"/><path d="M105,25.98l14.998,-25.98l15.002,25.98l-30,0Z" style="fill:#ff9c5b;fill-rule:nonzero;"/><path d="M134.998,25.98l-14.998,25.981l-15.002,-25.981l30,0Z" style="fill:#f5634a;fill-rule:nonzero;"/><path d="M90,51.961l14.998,-25.981l15.002,25.981l-30,0Z" style="fill:#fad089;fill-rule:nonzero;"/><path d="M119.998,51.961l-14.998,25.98l-15.002,-25.98l30,0Z" style="fill:#ff9c5b;fill-rule:nonzero;"/><path d="M75,77.941l14.998,-25.98l15.002,25.98l-30,0Z" style="fill:#fad089;fill-rule:nonzero;"/><path d="M104.998,77.941l-14.998,25.981l-15,-25.981l29.998,0Z" style="fill:#ff9c5b;fill-rule:nonzero;"/><path d="M60,103.922l15,-25.981l15,25.981l-30,0Z" style="fill:#f5634a;fill-rule:nonzero;"/><path d="M89.998,103.922l-14.997,25.98l-15.001,-25.98l29.998,0Z" style="fill:#ff9c5b;fill-rule:nonzero;"/><path d="M45,129.902l15,-25.98l15,25.98l-30,0Z" style="fill:#f5634a;fill-rule:nonzero;"/><path d="M210,0l-15,25.98l-15,-25.98l30,0Z" style="fill:#f5634a;fill-rule:nonzero;"/><path d="M165,25.98l15,-25.98l15,25.98l-30,0Z" style="fill:#fad089;fill-rule:nonzero;"/><path d="M195,25.98l-15,25.981l-15,-25.981l30,0Z" style="fill:#ff9c5b;fill-rule:nonzero;"/><path d="M150,51.961l15,-25.981l15,25.981l-30,0Z" style="fill:#f5634a;fill-rule:nonzero;"/><path d="M180,51.961l-15,25.98l-15,-25.98l30,0Z" style="fill:#fad089;fill-rule:nonzero;"/><path d="M135,77.941l15,-25.98l15,25.98l-30,0Z" style="fill:#ff9c5b;fill-rule:nonzero;"/><path d="M165,77.941l-15,25.981l-15,-25.981l30,0Z" style="fill:#f5634a;fill-rule:nonzero;"/><path d="M120,103.922l15,-25.981l15,25.981l-30,0Z" style="fill:#fad089;fill-rule:nonzero;"/><path d="M150,103.922l-15,25.98l-15,-25.98l30,0Z" style="fill:#f5634a;fill-rule:nonzero;"/><path d="M105,129.902l15,-25.98l15,25.98l-30,0Z" style="fill:#ff9c5b;fill-rule:nonzero;"/><path d="M75,25.98l-14.999,25.981l-15.001,-25.981l30,0Z" style="fill:#f5634a;fill-rule:nonzero;"/><path d="M30,51.961l15,-25.981l15,25.981l-30,0Z" style="fill:#ff9c5b;fill-rule:nonzero;"/><path d="M45,77.941l-14.999,25.981l-15.001,-25.981l30,0Z" style="fill:#fad089;fill-rule:nonzero;"/><path d="M0,103.922l15,-25.981l15,25.981l-30,0Z" style="fill:#f5634a;fill-rule:nonzero;"/></g></g></svg>